<svg width="24" height="24" viewBox="0 0 24 24" fill="none" xmlns="http://www.w3.org/2000/svg">
<g id="Frame">
<path id="Vector" d="M15.2434 3.79978C15.0859 3.63966 14.8316 3.63966 14.6738 3.79978L1.87756 16.8967C1.7205 17.0583 1.7205 17.3194 1.87756 17.4809L4.36601 20.0275C4.55634 20.2023 4.79929 20.3054 5.05452 20.3197H13.0279C13.2493 20.3197 13.5591 20.1886 13.7165 20.0275L22.1222 11.4237C22.2794 11.2622 22.2794 11.0009 22.1222 10.8394L15.2434 3.79978ZM12.9253 18.4739C12.7346 18.6489 12.4912 18.7521 12.2354 18.766H6.06329C5.80793 18.7517 5.56498 18.6487 5.37465 18.4739L4.20217 17.2725C4.04485 17.1111 4.04485 16.85 4.20217 16.6885L8.89221 11.8874C9.04991 11.7265 9.30514 11.7265 9.46309 11.8874L14.126 16.6608C14.2824 16.8223 14.2824 17.0824 14.126 17.2439L12.9253 18.4739Z" fill="#424242"/>
</g>
</svg>
