<svg width="24" height="24" viewBox="0 0 24 24" fill="none" xmlns="http://www.w3.org/2000/svg">
<path id="Vector" d="M12 0C15.1826 0 18.2348 1.26428 20.4853 3.51472C22.7357 5.76516 24 8.8174 24 12C24 15.1826 22.7357 18.2348 20.4853 20.4853C18.2348 22.7357 15.1826 24 12 24C8.8174 24 5.76516 22.7357 3.51472 20.4853C1.26428 18.2348 0 15.1826 0 12C0 8.8174 1.26428 5.76516 3.51472 3.51472C5.76516 1.26428 8.8174 0 12 0V0ZM12 16.3131C11.3863 16.3131 10.8891 16.8411 10.8891 17.4909C10.8891 18.1406 11.3863 18.6686 12 18.6686C12.6154 18.6686 13.1109 18.1406 13.1109 17.4891C13.1109 16.8429 12.6137 16.3149 12 16.3149V16.3131ZM12 5.33313C11.3863 5.33313 10.8891 5.85942 10.8891 6.50913V13.5686C10.8891 14.22 11.3863 14.7446 12 14.7446C12.6154 14.7446 13.1109 14.2183 13.1109 13.5686V6.51084C13.1109 5.85942 12.6137 5.33313 12 5.33313Z" fill="#F22929"/>
</svg>
