<svg width="24" height="24" viewBox="0 0 24 24" fill="none" xmlns="http://www.w3.org/2000/svg">
<path d="M13.6586 15.8775H13.4398C11.1542 15.8775 8.86868 15.8778 6.58302 15.8775C6.24417 15.8774 6.02333 15.7221 5.96888 15.4443C5.95818 15.3888 5.95919 15.3305 5.95919 15.2737C5.95877 13.2426 5.95872 11.2116 5.95891 9.18046C5.95898 8.79522 6.16759 8.59027 6.55884 8.59027C8.85477 8.59016 11.1508 8.59016 13.4469 8.59016H13.6586V8.40526C13.6586 6.59762 13.6583 4.78984 13.6588 2.98203C13.6588 2.73327 13.7774 2.53487 13.9783 2.45887C14.2094 2.37135 14.4144 2.41166 14.5887 2.59574C14.6885 2.7013 14.7974 2.7984 14.8999 2.90106C16.1942 4.19255 17.4883 5.48462 18.7822 6.77611C20.4443 8.43449 22.1063 10.0925 23.7684 11.7508C24.045 12.0266 24.0466 12.3175 23.7731 12.5904C21.3946 14.9648 19.0164 17.3394 16.6372 19.7129C15.9605 20.3879 15.2803 21.0588 14.6042 21.7344C14.4302 21.9085 14.2361 21.9848 13.9986 21.8946C13.7676 21.807 13.6588 21.6251 13.6588 21.3392C13.6585 19.5888 13.6586 17.8381 13.6586 16.0876V15.8775H13.6586ZM9.38607 2.51638V4.56881H9.19748C7.4573 4.56881 5.71713 4.56858 3.97698 4.56893C2.87426 4.56909 2.06224 5.3828 2.06219 6.48769C2.06203 10.3109 2.06904 14.1341 2.05759 17.957C2.05443 18.9685 2.82397 19.6973 3.53544 19.8304C3.69265 19.8595 3.85506 19.8727 4.01509 19.873C5.73966 19.8761 7.46429 19.8749 9.18893 19.8749H9.38294V21.9156C9.3584 21.9205 9.32977 21.9315 9.30108 21.9315C7.46738 21.9315 5.63349 21.9502 3.80026 21.9235C2.00856 21.8978 0.421917 20.5381 0.0799811 18.7782C0.031724 18.5302 0.00812127 18.2735 0.00784084 18.0209C0.00340072 14.156 -0.00681155 10.2913 0.0102245 6.42674C0.017352 4.81248 0.819377 3.65366 2.22 2.90054C2.71414 2.63472 3.25997 2.51467 3.82258 2.51327C5.64062 2.50837 7.45868 2.5114 9.27677 2.51152C9.3075 2.51154 9.33816 2.51423 9.38607 2.51638Z" fill="black"/>
</svg>
