<svg width="24" height="24" viewBox="0 0 24 24" fill="none" xmlns="http://www.w3.org/2000/svg">
<g id="Frame">
<path id="Vector" d="M15.0905 6.16211C14.6682 6.16211 14.3228 6.50464 14.3228 6.92345V8.82668C14.3228 9.2455 14.6682 9.58816 15.0905 9.58816C15.5128 9.58816 15.8582 9.2455 15.8582 8.82668V6.92345C15.8582 6.50464 15.5128 6.16211 15.0905 6.16211Z" fill="#409EFF"/>
<path id="Vector_2" d="M21.3393 7.35554L17.9224 2.48309C17.6155 2.06428 17.1163 1.79791 16.5404 1.75977H4.10202C3.25735 1.75977 2.56641 2.44495 2.56641 3.28245V20.7551C2.56641 21.5926 3.25735 22.2398 4.10202 22.2398H20.2642C21.1089 22.2398 21.7615 21.5545 21.7615 20.7551V8.42153C21.7999 8.00271 21.6081 7.62204 21.3393 7.35554ZM4.80602 4.02818H16.9372V9.20527C16.9372 9.92847 16.3228 10.5756 15.5552 10.5756H6.18804C5.42017 10.5756 4.80602 9.96661 4.80602 9.20527V4.02818ZM17.562 19.6155H6.71965C6.14219 19.6155 5.67404 19.1399 5.67404 18.5531C5.67404 17.9664 6.14216 17.4907 6.71965 17.4907H17.562C18.1395 17.4907 18.6076 17.9664 18.6076 18.5531C18.6076 19.1399 18.1395 19.6155 17.562 19.6155ZM17.562 15.699H6.71962C6.14216 15.699 5.67402 15.2233 5.67402 14.6366C5.67402 14.0498 6.14214 13.5742 6.71962 13.5742H17.5621C18.1395 13.5742 18.6077 14.0498 18.6077 14.6366C18.6077 15.2233 18.1395 15.699 17.562 15.699Z" fill="#409EFF"/>
</g>
</svg>
