<svg width="64" height="64" viewBox="0 0 64 64" fill="none" xmlns="http://www.w3.org/2000/svg">
<g id="Mask group">
<mask id="mask0_687_3626" style="mask-type:alpha" maskUnits="userSpaceOnUse" x="0" y="0" width="64" height="64">
<rect id="Rectangle 579" width="64" height="64" fill="#D9D9D9"/>
</mask>
<g mask="url(#mask0_687_3626)">
<g id="Group 510">
<g id="Ellipse 126">
<mask id="path-2-inside-1_687_3626" fill="white">
<path d="M13 16C13 20.9902 13.9829 25.9316 15.8926 30.542C17.8023 35.1523 20.6013 39.3414 24.1299 42.8701C27.6586 46.3987 31.8477 49.1977 36.458 51.1074C41.0684 53.0171 46.0098 54 51 54L51 16L13 16Z"/>
</mask>
<path d="M13 16C13 20.9902 13.9829 25.9316 15.8926 30.542C17.8023 35.1523 20.6013 39.3414 24.1299 42.8701C27.6586 46.3987 31.8477 49.1977 36.458 51.1074C41.0684 53.0171 46.0098 54 51 54L51 16L13 16Z" fill="white" fill-opacity="0.4" stroke="#424242" stroke-opacity="0.5" stroke-width="2" mask="url(#path-2-inside-1_687_3626)"/>
</g>
<rect id="Rectangle 534" x="47.5" y="16.5" width="3" height="37" fill="white" stroke="#424242"/>
<rect id="Rectangle 533" x="9.5" y="11.5" width="45" height="5" fill="white" stroke="#424242"/>
<line id="Line 54" x1="13.5" y1="12" x2="13.5" y2="16" stroke="#424242"/>
<line id="Line 55" x1="50.5" y1="12" x2="50.5" y2="16" stroke="#424242"/>
<rect id="Rectangle 535" x="9" y="12" width="4" height="4" fill="#F7F7F8"/>
<rect id="Rectangle 536" x="51" y="12" width="4" height="4" fill="#F7F7F8"/>
</g>
</g>
</g>
</svg>
