<svg width="26" height="26" viewBox="0 0 26 26" fill="none" xmlns="http://www.w3.org/2000/svg">
<g id="Frame">
<path id="Vector" d="M12.9999 22.9124C10.3709 22.9124 7.84966 21.8681 5.99071 20.0091C4.13175 18.1501 3.0874 15.6289 3.0874 12.9999C3.0874 10.3709 4.13175 7.84966 5.99071 5.99071C7.84966 4.13175 10.3709 3.0874 12.9999 3.0874C15.6289 3.0874 18.1501 4.13175 20.0091 5.99071C21.8681 7.84966 22.9124 10.3709 22.9124 12.9999C22.9124 15.6289 21.8681 18.1501 20.0091 20.0091C18.1501 21.8681 15.6289 22.9124 12.9999 22.9124ZM12.9999 21.2874C15.1979 21.2874 17.3058 20.4143 18.8601 18.8601C20.4143 17.3058 21.2874 15.1979 21.2874 12.9999C21.2874 10.8019 20.4143 8.69396 18.8601 7.13975C17.3058 5.58555 15.1979 4.7124 12.9999 4.7124C10.8019 4.7124 8.69396 5.58555 7.13975 7.13975C5.58555 8.69396 4.7124 10.8019 4.7124 12.9999C4.7124 15.1979 5.58555 17.3058 7.13975 18.8601C8.69396 20.4143 10.8019 21.2874 12.9999 21.2874V21.2874Z" fill="#9AC9F9"/>
<path id="Vector_2" d="M22.1001 13.8125C21.8846 13.8125 21.6779 13.7269 21.5256 13.5745C21.3732 13.4222 21.2876 13.2155 21.2876 13C21.2876 12.7845 21.3732 12.5778 21.5256 12.4255C21.6779 12.2731 21.8846 12.1875 22.1001 12.1875H24.7001C24.9156 12.1875 25.1222 12.2731 25.2746 12.4255C25.427 12.5778 25.5126 12.7845 25.5126 13C25.5126 13.2155 25.427 13.4222 25.2746 13.5745C25.1222 13.7269 24.9156 13.8125 24.7001 13.8125H22.1001Z" fill="#9AC9F9"/>
<path id="Vector_3" d="M7.7998 12.9998C7.7998 14.3789 8.34766 15.7016 9.32285 16.6768C10.298 17.6519 11.6207 18.1998 12.9998 18.1998C14.3789 18.1998 15.7016 17.6519 16.6768 16.6768C17.6519 15.7016 18.1998 14.3789 18.1998 12.9998C18.1998 11.6207 17.6519 10.298 16.6768 9.32285C15.7016 8.34766 14.3789 7.7998 12.9998 7.7998C11.6207 7.7998 10.298 8.34766 9.32285 9.32285C8.34766 10.298 7.7998 11.6207 7.7998 12.9998V12.9998Z" fill="#9AC9F9"/>
<path id="Vector_4" d="M13.8123 3.8998C13.8123 4.11529 13.7267 4.32196 13.5743 4.47433C13.422 4.6267 13.2153 4.7123 12.9998 4.7123C12.7843 4.7123 12.5777 4.6267 12.4253 4.47433C12.2729 4.32196 12.1873 4.11529 12.1873 3.8998V1.2998C12.1873 1.08432 12.2729 0.877654 12.4253 0.72528C12.5777 0.572907 12.7843 0.487305 12.9998 0.487305C13.2153 0.487305 13.422 0.572907 13.5743 0.72528C13.7267 0.877654 13.8123 1.08432 13.8123 1.2998V3.8998V3.8998ZM12.1873 22.0998C12.1873 21.8843 12.2729 21.6777 12.4253 21.5253C12.5777 21.3729 12.7843 21.2873 12.9998 21.2873C13.2153 21.2873 13.422 21.3729 13.5743 21.5253C13.7267 21.6777 13.8123 21.8843 13.8123 22.0998V24.6998C13.8123 24.9153 13.7267 25.122 13.5743 25.2743C13.422 25.4267 13.2153 25.5123 12.9998 25.5123C12.7843 25.5123 12.5777 25.4267 12.4253 25.2743C12.2729 25.122 12.1873 24.9153 12.1873 24.6998V22.0998ZM3.8998 12.1873C4.11529 12.1873 4.32196 12.2729 4.47433 12.4253C4.6267 12.5777 4.7123 12.7843 4.7123 12.9998C4.7123 13.2153 4.6267 13.422 4.47433 13.5743C4.32196 13.7267 4.11529 13.8123 3.8998 13.8123H1.2998C1.08432 13.8123 0.877654 13.7267 0.72528 13.5743C0.572907 13.422 0.487305 13.2153 0.487305 12.9998C0.487305 12.7843 0.572907 12.5777 0.72528 12.4253C0.877654 12.2729 1.08432 12.1873 1.2998 12.1873H3.8998V12.1873Z" fill="#9AC9F9"/>
</g>
</svg>
