<svg width="30" height="30" viewBox="0 0 30 30" fill="none" xmlns="http://www.w3.org/2000/svg">
<g id="Frame">
<path id="Vector" d="M19.0543 4.75022C18.8573 4.55006 18.5396 4.55006 18.3423 4.75022L2.34695 21.1214C2.15063 21.3233 2.15063 21.6497 2.34695 21.8516L5.45751 25.0348C5.69543 25.2534 5.99911 25.3822 6.31815 25.4001H16.2848C16.5616 25.4001 16.9488 25.2363 17.1456 25.0348L27.6528 14.2801C27.8493 14.0782 27.8493 13.7517 27.6528 13.5497L19.0543 4.75022ZM16.1567 23.0929C15.9183 23.3116 15.614 23.4406 15.2943 23.458H7.57911C7.25991 23.4401 6.95623 23.3113 6.71831 23.0929L5.25271 21.5911C5.05607 21.3894 5.05607 21.063 5.25271 20.8611L11.1153 14.8598C11.3124 14.6587 11.6314 14.6587 11.8289 14.8598L17.6575 20.8265C17.853 21.0284 17.853 21.3535 17.6575 21.5553L16.1567 23.0929V23.0929Z" fill="#333333"/>
</g>
</svg>
