<svg width="24" height="24" viewBox="0 0 24 24" fill="none" xmlns="http://www.w3.org/2000/svg">
<g id="Group 244">
<g id="Frame">
<path id="Vector" d="M14.0604 17.5007C13.6798 17.5007 13.373 17.194 13.373 16.8133V9.24842C13.373 8.86777 13.6798 8.56104 14.0604 8.56104C14.4411 8.56104 14.7478 8.86777 14.7478 9.24842V16.8096C14.7478 17.1903 14.4411 17.5007 14.0604 17.5007Z" fill="#333333"/>
<path id="Vector_2" d="M9.93592 17.5007C9.55527 17.5007 9.24854 17.194 9.24854 16.8133V9.24842C9.24854 8.86777 9.55527 8.56104 9.93592 8.56104C10.3166 8.56104 10.6233 8.86777 10.6233 9.24842V16.8096C10.6233 17.1903 10.3166 17.5007 9.93592 17.5007Z" fill="#333333"/>
<path id="Vector_3" d="M20.9381 5.81192H17.5012V4.43715C17.5012 3.2989 16.5846 2.375 15.4538 2.375H8.56146C7.42321 2.375 6.49931 3.2989 6.49931 4.43715V5.81192H3.06238C2.68174 5.81192 2.375 6.11866 2.375 6.49931C2.375 6.87996 2.68174 7.18669 3.06238 7.18669H20.9381C21.3187 7.18669 21.6255 6.87996 21.6255 6.49931C21.6255 6.11866 21.3187 5.81192 20.9381 5.81192ZM7.87408 4.43715C7.87408 4.0602 8.18451 3.74977 8.56146 3.74977H15.4538C15.8307 3.74977 16.1264 4.05281 16.1264 4.43715V5.81192H7.87408V4.43715Z" fill="#333333"/>
<path id="Vector_4" d="M16.8135 21.6251H7.19008C6.05183 21.6251 5.12793 20.7012 5.12793 19.563V9.2411C5.12793 8.86045 5.43467 8.55371 5.81531 8.55371C6.19596 8.55371 6.5027 8.86045 6.5027 9.2411V19.563C6.5027 19.9436 6.81313 20.2503 7.19008 20.2503H16.8172C17.1978 20.2503 17.5045 19.9436 17.5045 19.563V9.26696C17.5045 8.88632 17.8113 8.57958 18.1919 8.57958C18.5726 8.57958 18.8793 8.88632 18.8793 9.26696V19.563C18.8756 20.6975 17.9517 21.6251 16.8135 21.6251Z" fill="#333333"/>
</g>
</g>
</svg>
