<svg width="67" height="39" viewBox="0 0 67 39" fill="none" xmlns="http://www.w3.org/2000/svg">
<g id="Group 241">
<path id="Vector 56" d="M0.5 38V33H66.5V38H0.5Z" fill="white" stroke="#BBBBBB"/>
<path id="Vector 57" d="M0 35.5H66" stroke="#BBBBBB"/>
<path id="Vector" d="M66.5 1V33.5H33.5C34.8384 24.696 36.9569 16.5506 43.2537 10.2537C49.5506 3.95685 56.196 1.8384 65 0.5L66.5 1Z" fill="white"/>
<path id="Vector_2" d="M1.5 0L1 33.5L33.5 33C32.1616 24.196 30.5431 16.5506 24.2463 10.2537C17.9494 3.95685 10.804 1.3384 2 0H1.5Z" fill="white"/>
<path id="Vector_3" d="M0 0C18.7785 0 34 15.2215 34 34H0V0ZM1.30769 32.6923H32.6662C31.9992 15.6766 18.3234 2.00208 1.30769 1.33385V32.6923Z" fill="#BBBBBB"/>
<path id="Vector_4" d="M67 0C48.2215 0 33 15.2215 33 34H67V0ZM65.6923 32.6923H34.3338C35.0008 15.6766 48.6766 2.00208 65.6923 1.33385V32.6923Z" fill="#BBBBBB"/>
</g>
</svg>
