<svg width="30" height="30" viewBox="0 0 30 30" fill="none" xmlns="http://www.w3.org/2000/svg">
<g id="Frame">
<path id="Vector" d="M9.64453 14.8828C9.49219 14.8828 9.3457 14.8242 9.22852 14.7129L2.58398 8.06836C2.05664 7.54101 2.05664 6.68555 2.58398 6.16406L7.20117 1.54687C7.72852 1.01953 8.58398 1.01953 9.10547 1.54687L15.7383 8.17969C15.9668 8.4082 15.9668 8.77734 15.7383 9.00586C15.5098 9.23437 15.1406 9.23437 14.9121 9.00586L8.2793 2.37891C8.20899 2.30859 8.09766 2.30859 8.0332 2.37891L3.41602 6.99609C3.375 7.03711 3.36328 7.08984 3.36328 7.11914C3.36328 7.14844 3.375 7.20117 3.41602 7.24219L10.0605 13.8867C10.2891 14.1152 10.2891 14.4844 10.0605 14.7129C9.94336 14.8242 9.79102 14.8828 9.64453 14.8828ZM22.4766 27.4043C22.1309 27.4043 21.7852 27.2754 21.5215 27.0117L14.918 20.4023C14.6895 20.1738 14.6895 19.8047 14.918 19.5762C15.1465 19.3477 15.5156 19.3477 15.7441 19.5762L22.3477 26.1797C22.418 26.25 22.5293 26.25 22.5938 26.1797L27.2109 21.5625C27.252 21.5215 27.2637 21.4687 27.2637 21.4395C27.2637 21.4043 27.252 21.3574 27.2109 21.3164L20.6016 14.7012C20.373 14.4727 20.373 14.1035 20.6016 13.875C20.8301 13.6465 21.1992 13.6465 21.4277 13.875L28.043 20.4902C28.2949 20.7422 28.4355 21.082 28.4355 21.4453C28.4355 21.8027 28.2949 22.1426 28.043 22.4004L23.4258 27.0176C23.168 27.2695 22.8223 27.4043 22.4766 27.4043V27.4043Z" fill="#333333"/>
<path id="Vector_2" d="M2.672 27.5684C2.51965 27.5684 2.36731 27.5098 2.25598 27.3984C2.12707 27.2695 2.06848 27.0937 2.08606 26.9121L2.89465 20.4141C2.91223 20.2852 2.97083 20.1621 3.05872 20.0742L21.34 1.73438C21.6447 1.42969 22.0431 1.26562 22.4708 1.26562C22.8986 1.26562 23.297 1.42969 23.6017 1.73438L27.8615 5.99414C28.4825 6.61523 28.4825 7.62891 27.8615 8.25586L9.5802 26.5957C9.48645 26.6895 9.36926 26.748 9.24036 26.7656L2.74231 27.5625C2.71887 27.5684 2.69543 27.5684 2.672 27.5684V27.5684ZM4.03723 20.7539L3.34582 26.3086L8.90051 25.6172L27.0411 7.41797C27.2111 7.24805 27.2111 6.97852 27.0411 6.81445L22.7814 2.55469C22.6993 2.47266 22.5939 2.43164 22.4767 2.43164C22.3654 2.43164 22.254 2.47852 22.172 2.55469L4.03723 20.7539Z" fill="#333333"/>
<path id="Vector_3" d="M24.7559 11.1211C24.6035 11.1211 24.457 11.0625 24.3398 10.9512L18.6445 5.25586C18.416 5.02734 18.416 4.6582 18.6445 4.42969C18.873 4.20117 19.2422 4.20117 19.4707 4.42969L25.166 10.125C25.3945 10.3535 25.3945 10.7227 25.166 10.9512C25.0547 11.0625 24.9023 11.1211 24.7559 11.1211ZM9.22852 26.707C9.07617 26.707 8.92969 26.6484 8.8125 26.5371L3.11719 20.8418C2.88867 20.6133 2.88867 20.2441 3.11719 20.0156C3.3457 19.7871 3.71484 19.7871 3.94336 20.0156L9.63867 25.7109C9.86719 25.9395 9.86719 26.3086 9.63867 26.5371C9.52734 26.6484 9.375 26.707 9.22852 26.707ZM20.2383 25.3066C20.0859 25.3066 19.9395 25.248 19.8223 25.1367C19.5937 24.9082 19.5937 24.5391 19.8223 24.3105L23.4785 20.6543C23.707 20.4258 24.0762 20.4258 24.3047 20.6543C24.5332 20.8828 24.5332 21.252 24.3047 21.4805L20.6543 25.1367C20.543 25.2539 20.3906 25.3066 20.2383 25.3066ZM17.8711 22.9395C17.7188 22.9395 17.5723 22.8809 17.4551 22.7695C17.2266 22.541 17.2266 22.1719 17.4551 21.9434L21.1113 18.2871C21.3398 18.0586 21.709 18.0586 21.9375 18.2871C22.166 18.5156 22.166 18.8848 21.9375 19.1133L18.2813 22.7695C18.1699 22.8809 18.0234 22.9395 17.8711 22.9395ZM7.29492 12.3633C7.14258 12.3633 6.99609 12.3047 6.87891 12.1934C6.65039 11.9648 6.65039 11.5957 6.87891 11.3672L10.5352 7.71094C10.7637 7.48242 11.1328 7.48242 11.3613 7.71094C11.5898 7.93945 11.5898 8.30859 11.3613 8.53711L7.70508 12.1934C7.59375 12.3047 7.44727 12.3633 7.29492 12.3633ZM4.92773 9.99609C4.77539 9.99609 4.62891 9.9375 4.51172 9.82617C4.2832 9.59766 4.2832 9.22852 4.51172 9L8.17383 5.33203C8.40234 5.10352 8.77148 5.10352 9 5.33203C9.22852 5.56055 9.22852 5.92969 9 6.1582L5.34375 9.81445C5.22656 9.9375 5.07422 9.99609 4.92773 9.99609Z" fill="#333333"/>
</g>
</svg>
