<svg width="24" height="24" viewBox="0 0 24 24" fill="none" xmlns="http://www.w3.org/2000/svg">
<g id="Frame">
<path id="Vector" d="M13.6583 15.8775H13.4396C11.154 15.8775 8.86843 15.8778 6.58278 15.8775C6.24393 15.8774 6.02309 15.7221 5.96864 15.4443C5.95794 15.3888 5.95894 15.3305 5.95894 15.2737C5.95852 13.2426 5.95847 11.2116 5.95866 9.18046C5.95873 8.79522 6.16735 8.59027 6.55859 8.59027C8.85453 8.59016 11.1505 8.59016 13.4466 8.59016H13.6583V8.40526C13.6583 6.59762 13.6581 4.78984 13.6586 2.98203C13.6586 2.73327 13.7771 2.53487 13.978 2.45887C14.2091 2.37135 14.4142 2.41166 14.5884 2.59574C14.6883 2.7013 14.7971 2.7984 14.8997 2.90106C16.194 4.19255 17.4881 5.48462 18.782 6.77611C20.444 8.43449 22.1061 10.0925 23.7681 11.7508C24.0448 12.0266 24.0463 12.3175 23.7729 12.5904C21.3944 14.9648 19.0162 17.3394 16.637 19.7129C15.9603 20.3879 15.28 21.0588 14.604 21.7344C14.43 21.9085 14.2359 21.9848 13.9984 21.8946C13.7674 21.807 13.6586 21.6251 13.6586 21.3392C13.6582 19.5888 13.6583 17.8381 13.6583 16.0876V15.8775H13.6583ZM9.38582 2.51638V4.56881H9.19724C7.45706 4.56881 5.71689 4.56858 3.97673 4.56893C2.87402 4.56909 2.06199 5.3828 2.06195 6.48769C2.06178 10.3109 2.06879 14.1341 2.05734 17.957C2.05419 18.9685 2.82373 19.6973 3.5352 19.8304C3.6924 19.8595 3.85482 19.8727 4.01485 19.873C5.73941 19.8761 7.46405 19.8749 9.18868 19.8749H9.38269V21.9156C9.35816 21.9205 9.32953 21.9315 9.30083 21.9315C7.46713 21.9315 5.63325 21.9502 3.80002 21.9235C2.00831 21.8978 0.421673 20.5381 0.0797369 18.7782C0.0314798 18.5302 0.00787713 18.2735 0.0075967 18.0209C0.00315658 14.156 -0.00705569 10.2913 0.00998034 6.42674C0.0171079 4.81248 0.819133 3.65366 2.21976 2.90054C2.71389 2.63472 3.25973 2.51467 3.82233 2.51327C5.64038 2.50837 7.45844 2.5114 9.27653 2.51152C9.30726 2.51154 9.33792 2.51423 9.38582 2.51638V2.51638Z" fill="black"/>
</g>
</svg>
