<svg width="24" height="24" viewBox="0 0 24 24" fill="none" xmlns="http://www.w3.org/2000/svg">
<g id="Frame">
<path id="Vector" d="M13.4241 15.1982C13.3494 15.1982 13.2911 15.1982 13.2331 15.1982C11.237 15.1982 9.24092 15.1984 7.24475 15.1982C6.94882 15.1981 6.75596 15.0625 6.7084 14.8198C6.69907 14.7714 6.69994 14.7204 6.69994 14.6708C6.69958 12.897 6.69953 11.1232 6.6997 9.34937C6.69974 9.01293 6.88195 8.83394 7.22362 8.83394C9.22878 8.83384 11.234 8.83384 13.2392 8.83384C13.2932 8.83384 13.3476 8.83384 13.4241 8.83384C13.4241 8.77628 13.4241 8.72443 13.4241 8.67239C13.4241 7.09368 13.4239 5.51488 13.4243 3.93603C13.4243 3.71878 13.5279 3.5455 13.7033 3.47914C13.9052 3.4027 14.0843 3.43791 14.2364 3.59865C14.3237 3.69084 14.4187 3.77565 14.5083 3.8653C15.6386 4.99321 16.7688 6.12164 17.8989 7.24955C19.3504 8.69788 20.802 10.1459 22.2535 11.5942C22.4951 11.835 22.4964 12.0891 22.2576 12.3274C20.1804 14.4011 18.1034 16.4749 16.0255 18.5478C15.4346 19.1373 14.8405 19.7232 14.25 20.3133C14.0981 20.4653 13.9286 20.5319 13.7211 20.4531C13.5194 20.3766 13.4244 20.2178 13.4244 19.9681C13.4241 18.4394 13.4242 16.9104 13.4242 15.3817C13.4241 15.3277 13.4241 15.2738 13.4241 15.1982ZM9.69277 3.52941C9.69277 4.12975 9.69277 4.71754 9.69277 5.32186C9.63394 5.32186 9.58098 5.32186 9.52808 5.32186C8.00832 5.32186 6.48854 5.32164 4.96881 5.32195C4.00577 5.3221 3.29657 6.03276 3.29652 6.9977C3.29638 10.3367 3.3025 13.6756 3.29249 17.0143C3.28974 17.8977 3.96181 18.5342 4.58316 18.6504C4.72046 18.6758 4.8623 18.6874 5.00206 18.6877C6.50821 18.6903 8.01439 18.6893 9.52059 18.6893C9.5741 18.6893 9.62768 18.6893 9.69004 18.6893C9.69004 19.2878 9.69004 19.8754 9.69004 20.4715C9.66862 20.4758 9.64361 20.4854 9.61854 20.4854C8.01712 20.4854 6.41551 20.5017 4.81448 20.4784C3.24971 20.456 1.86402 19.2685 1.5654 17.7315C1.52326 17.5149 1.50264 17.2907 1.50242 17.0701C1.49853 13.6948 1.48964 10.3195 1.50451 6.94443C1.51074 5.53464 2.21116 4.52257 3.43441 3.86487C3.86597 3.63271 4.34265 3.52787 4.834 3.52663C6.42177 3.52233 8.00957 3.525 9.59736 3.52509C9.62415 3.52516 9.65094 3.52751 9.69277 3.52941Z" fill="#424242"/>
</g>
</svg>
