<svg width="40" height="40" viewBox="0 0 40 40" fill="none" xmlns="http://www.w3.org/2000/svg">
<g id="Frame">
<path id="Vector" d="M2.52637 20.0002C2.60566 14.2084 3.61152 9.41269 6.55254 6.55254C9.41269 3.61152 14.2084 2.60566 20.0002 2.52637C25.792 2.60566 30.5877 3.61152 33.4478 6.55254C36.3889 9.41269 37.3947 14.2084 37.474 20.0002C37.3947 25.792 36.3889 30.5877 33.4478 33.4478C30.5877 36.3889 25.792 37.3947 20.0002 37.474C14.2084 37.3947 9.41269 36.3889 6.55254 33.4478C3.61152 30.5877 2.60566 25.792 2.52637 20.0002Z" fill="#98C7F7"/>
<path id="Vector_2" d="M20.0002 12.7495C14.9178 12.7495 10.7725 18.5788 10.7725 19.9999C10.7725 21.421 14.9178 27.2503 20.0002 27.2503C25.083 27.2503 29.2283 21.421 29.2283 19.9999C29.2283 18.5788 25.0826 12.7495 20.0002 12.7495ZM20.0002 23.2956C18.183 23.2956 16.7045 21.8171 16.7045 19.9999C16.7045 18.1827 18.183 16.7042 20.0002 16.7042C21.8174 16.7042 23.2959 18.1827 23.2959 19.9999C23.2959 21.8171 21.8174 23.2956 20.0002 23.2956Z" fill="white"/>
</g>
</svg>
