<svg width="30" height="30" viewBox="0 0 30 30" fill="none" xmlns="http://www.w3.org/2000/svg">
<g id="Frame">
<path id="Vector" d="M24.3748 28.3686H5.6248C5.23937 28.3811 4.85533 28.3163 4.49535 28.178C4.13537 28.0397 3.80675 27.8307 3.52887 27.5633C3.25099 27.2959 3.02949 26.9755 2.87743 26.6211C2.72538 26.2668 2.64586 25.8855 2.64355 25.4999V15.3374C2.64355 15.0837 2.7443 14.8405 2.92363 14.6612C3.10297 14.4819 3.34619 14.3811 3.5998 14.3811C3.85342 14.3811 4.09664 14.4819 4.27598 14.6612C4.45531 14.8405 4.55605 15.0837 4.55605 15.3374V25.4999C4.56096 25.7502 4.66388 25.9886 4.84268 26.1639C5.02148 26.3392 5.26191 26.4374 5.5123 26.4374H24.3748C24.6252 26.4374 24.8656 26.3392 25.0444 26.1639C25.2232 25.9886 25.3261 25.7502 25.3311 25.4999V15.2624C25.3032 15.1236 25.3064 14.9803 25.3406 14.843C25.3748 14.7056 25.4391 14.5775 25.5288 14.468C25.6184 14.3585 25.7313 14.2703 25.8593 14.2097C25.9872 14.1491 26.127 14.1177 26.2686 14.1177C26.4101 14.1177 26.5499 14.1491 26.6778 14.2097C26.8058 14.2703 26.9187 14.3585 27.0084 14.468C27.098 14.5775 27.1623 14.7056 27.1965 14.843C27.2307 14.9803 27.234 15.1236 27.2061 15.2624V25.4999C27.2061 26.2542 26.909 26.9783 26.3791 27.5152C25.8492 28.0522 25.1291 28.3587 24.3748 28.3686V28.3686Z" fill="#323333"/>
<path id="Vector_2" d="M11.0249 28.3685C10.8977 28.3685 10.7718 28.3432 10.6546 28.294C10.5373 28.2448 10.4311 28.1726 10.342 28.0818C10.253 27.9911 10.1829 27.8834 10.136 27.7652C10.0891 27.647 10.0662 27.5207 10.0687 27.3935V17.1748C10.0687 16.4139 10.3709 15.6842 10.9089 15.1463C11.4469 14.6083 12.1766 14.306 12.9374 14.306H16.8749C17.6342 14.3109 18.3611 14.6148 18.898 15.1517C19.4349 15.6886 19.7387 16.4154 19.7437 17.1748V27.3185C19.7851 27.4636 19.7923 27.6164 19.7647 27.7647C19.7371 27.9131 19.6754 28.053 19.5845 28.1735C19.4937 28.294 19.3761 28.3917 19.241 28.459C19.1059 28.5263 18.9571 28.5613 18.8062 28.5613C18.6553 28.5613 18.5064 28.5263 18.3713 28.459C18.2363 28.3917 18.1187 28.294 18.0278 28.1735C17.9369 28.053 17.8752 27.9131 17.8476 27.7647C17.82 27.6164 17.8272 27.4636 17.8687 27.3185V17.1748C17.8715 17.0452 17.8474 16.9165 17.798 16.7967C17.7485 16.6769 17.6748 16.5686 17.5814 16.4788C17.4881 16.3889 17.3771 16.3194 17.2554 16.2746C17.1338 16.2298 17.0043 16.2107 16.8749 16.2185H12.9374C12.6838 16.2185 12.4406 16.3193 12.2612 16.4986C12.0819 16.6779 11.9812 16.9212 11.9812 17.1748V27.3935C11.9837 27.5207 11.9608 27.647 11.9138 27.7652C11.8669 27.8834 11.7968 27.9911 11.7078 28.0818C11.6188 28.1726 11.5125 28.2448 11.3952 28.294C11.278 28.3432 11.1521 28.3685 11.0249 28.3685V28.3685ZM1.14366 14.306C1.00036 14.3042 0.859131 14.2715 0.729674 14.21C0.600218 14.1485 0.485594 14.0597 0.393664 13.9498C0.312874 13.8514 0.252966 13.7376 0.21759 13.6153C0.182215 13.493 0.172114 13.3648 0.187904 13.2385C0.203693 13.1122 0.245042 12.9904 0.30943 12.8806C0.373817 12.7708 0.459895 12.6752 0.562414 12.5998L12.3937 3.22477C13.043 2.68541 13.8553 2.38089 14.6991 2.36047C15.543 2.34006 16.369 2.60494 17.0437 3.11227L29.4374 12.4873C29.6413 12.6414 29.7756 12.8703 29.8108 13.1234C29.8459 13.3766 29.7791 13.6334 29.6249 13.8373C29.4708 14.0412 29.2419 14.1754 28.9887 14.2106C28.7356 14.2458 28.4788 14.1789 28.2749 14.0248L15.8437 4.64977C15.5225 4.41511 15.1351 4.28865 14.7374 4.28865C14.3397 4.28865 13.9523 4.41511 13.6312 4.64977L1.74366 14.0248C1.58457 14.1884 1.37123 14.2884 1.14366 14.306V14.306Z" fill="#323333"/>
</g>
</svg>
