<svg width="24" height="24" viewBox="0 0 24 24" fill="none" xmlns="http://www.w3.org/2000/svg">
<g id="Frame">
<path id="Vector" d="M7.97863 8.3817C7.97863 6.35793 9.85171 4.47765 11.8679 4.47765C13.8841 4.47765 15.7573 6.3579 15.7573 8.3817V9.92202H17.8454V8.41242C17.8454 5.09865 15.1691 2.41211 11.8679 2.41211C8.56687 2.41211 5.89065 5.09853 5.89065 8.41242V9.92202H7.97863V8.3817ZM17.3909 10.6886H6.34509C5.41881 10.6886 4.66809 11.4423 4.66809 12.3721V19.9285C4.66809 20.8583 5.41893 21.6121 6.34509 21.6121H17.3909C18.3172 21.6121 19.068 20.8583 19.068 19.9285V12.372C19.068 11.4424 18.3171 10.6886 17.3909 10.6886ZM12.9357 18.0793H10.8034L11.2714 16.3193C10.814 16.0967 10.4984 15.6261 10.4984 15.0814C10.4984 14.322 11.1116 13.7063 11.8679 13.7063C12.6244 13.7063 13.2376 14.3219 13.2376 15.0814C13.2376 15.625 12.9235 16.0947 12.4673 16.3179L12.9357 18.0793Z" fill="#409EFF"/>
</g>
</svg>
