<svg width="30" height="30" viewBox="0 0 30 30" fill="none" xmlns="http://www.w3.org/2000/svg">
<g id="Frame">
<path id="Vector" d="M9.97313 10.4771C9.97313 7.94741 12.3145 5.59706 14.8348 5.59706C17.355 5.59706 19.6965 7.94738 19.6965 10.4771V12.4025H22.3066V10.5155C22.3066 6.37331 18.9612 3.01514 14.8348 3.01514C10.7084 3.01514 7.36316 6.37316 7.36316 10.5155V12.4025H9.97313V10.4771V10.4771ZM21.7385 13.3607H7.93121C6.77336 13.3607 5.83496 14.3029 5.83496 15.4651V24.9106C5.83496 26.0728 6.77351 27.0151 7.93121 27.0151H21.7385C22.8963 27.0151 23.8349 26.0728 23.8349 24.9106V15.465C23.8348 14.303 22.8962 13.3607 21.7385 13.3607V13.3607ZM16.1695 22.5992H13.5041L14.0891 20.3991C13.5173 20.1209 13.1228 19.5326 13.1228 18.8517C13.1228 17.9025 13.8893 17.1329 14.8348 17.1329C15.7804 17.1329 16.5469 17.9024 16.5469 18.8517C16.5469 19.5312 16.1542 20.1183 15.584 20.3973L16.1695 22.5992Z" fill="#333333"/>
</g>
</svg>
