<svg width="30" height="28" viewBox="0 0 30 28" fill="none" xmlns="http://www.w3.org/2000/svg">
<g clip-path="url(#clip0_88_6604)">
<path d="M25 1.55977e-07C25.841 -0.000248238 26.6509 0.296188 27.2676 0.829884C27.8842 1.36358 28.2619 2.09509 28.325 2.87778L28.3333 3.11111V10.8889C28.7754 10.8889 29.1993 11.0528 29.5118 11.3445C29.8244 11.6362 30 12.0319 30 12.4444V26.4444C30 26.857 29.8244 27.2527 29.5118 27.5444C29.1993 27.8361 28.7754 28 28.3333 28H1.66667C1.22464 28 0.800716 27.8361 0.488155 27.5444C0.175595 27.2527 0 26.857 0 26.4444L0 9.33333C0 8.92077 0.175595 8.52511 0.488155 8.23339C0.800716 7.94167 1.22464 7.77778 1.66667 7.77778V3.11111C1.6664 2.32621 1.98401 1.57023 2.55583 0.994703C3.12765 0.419177 3.91141 0.0666451 4.75 0.00777792L5 1.55977e-07H25ZM13.3333 9.33333H1.66667V26.4444H28.3333V12.4444H13.3333V9.33333ZM25 1.55556H5C4.59178 1.55561 4.19777 1.69549 3.89271 1.94867C3.58766 2.20185 3.39276 2.55072 3.345 2.92911L3.33333 3.11111V7.77778H13.3333C13.7754 7.77778 14.1993 7.94167 14.5118 8.23339C14.8244 8.52511 15 8.92077 15 9.33333V10.8889H26.6667V3.11111C26.6666 2.7301 26.5167 2.36236 26.2455 2.07764C25.9742 1.79292 25.6004 1.61102 25.195 1.56644L25 1.55556ZM22.5 6.22222C22.6094 6.22222 22.7178 6.24234 22.8189 6.28143C22.92 6.32051 23.0119 6.3778 23.0893 6.45003C23.1666 6.52225 23.228 6.60799 23.2699 6.70236C23.3118 6.79672 23.3333 6.89786 23.3333 7C23.3333 7.10214 23.3118 7.20328 23.2699 7.29764C23.228 7.39201 23.1666 7.47775 23.0893 7.54997C23.0119 7.6222 22.92 7.67949 22.8189 7.71857C22.7178 7.75766 22.6094 7.77778 22.5 7.77778H15.8333C15.6123 7.77778 15.4004 7.69583 15.2441 7.54997C15.0878 7.40411 15 7.20628 15 7C15 6.79372 15.0878 6.59589 15.2441 6.45003C15.4004 6.30417 15.6123 6.22222 15.8333 6.22222H22.5ZM22.5 3.11111C22.6094 3.11111 22.7178 3.13123 22.8189 3.17032C22.92 3.2094 23.0119 3.26669 23.0893 3.33892C23.1666 3.41114 23.228 3.49688 23.2699 3.59125C23.3118 3.68561 23.3333 3.78675 23.3333 3.88889C23.3333 3.99103 23.3118 4.09217 23.2699 4.18653C23.228 4.2809 23.1666 4.36664 23.0893 4.43886C23.0119 4.51108 22.92 4.56838 22.8189 4.60746C22.7178 4.64655 22.6094 4.66667 22.5 4.66667H7.5C7.27899 4.66667 7.06702 4.58472 6.91074 4.43886C6.75446 4.293 6.66667 4.09517 6.66667 3.88889C6.66667 3.68261 6.75446 3.48478 6.91074 3.33892C7.06702 3.19306 7.27899 3.11111 7.5 3.11111H22.5Z" fill="#333333"/>
</g>
<defs>
<clipPath id="clip0_88_6604">
<rect width="30" height="28" fill="white"/>
</clipPath>
</defs>
</svg>
