<svg width="30" height="30" viewBox="0 0 30 30" fill="none" xmlns="http://www.w3.org/2000/svg">
<g id="Frame">
<path id="Vector" d="M18.863 7.70215C18.3352 7.70215 17.9033 8.13031 17.9033 8.65383V11.0329C17.9033 11.5564 18.3352 11.9847 18.863 11.9847C19.3908 11.9847 19.8227 11.5564 19.8227 11.0329V8.65383C19.8227 8.13031 19.3908 7.70215 18.863 7.70215Z" fill="#333333"/>
<path id="Vector_2" d="M26.6741 9.19492L22.403 3.10436C22.0194 2.58084 21.3954 2.24788 20.6755 2.2002H5.12753C4.07169 2.2002 3.20801 3.05668 3.20801 4.10356V25.9444C3.20801 26.9912 4.07169 27.8002 5.12753 27.8002H25.3302C26.3861 27.8002 27.2019 26.9436 27.2019 25.9444V10.5274C27.2499 10.0039 27.0101 9.52804 26.6741 9.19492V9.19492ZM6.00753 5.03572H21.1715V11.5071C21.1715 12.4111 20.4035 13.22 19.444 13.22H7.73505C6.77521 13.22 6.00753 12.4588 6.00753 11.5071V5.03572ZM21.9525 24.5199H8.39956C7.67774 24.5199 7.09255 23.9253 7.09255 23.1919C7.09255 22.4584 7.6777 21.8639 8.39956 21.8639H21.9525C22.6743 21.8639 23.2595 22.4584 23.2595 23.1919C23.2595 23.9253 22.6743 24.5199 21.9525 24.5199ZM21.9526 19.6242H8.39953C7.6777 19.6242 7.09252 19.0296 7.09252 18.2962C7.09252 17.5628 7.67767 16.9682 8.39953 16.9682H21.9526C22.6744 16.9682 23.2596 17.5628 23.2596 18.2962C23.2596 19.0296 22.6744 19.6242 21.9526 19.6242V19.6242Z" fill="#333333"/>
</g>
</svg>
