<svg width="24" height="24" viewBox="0 0 24 24" fill="none" xmlns="http://www.w3.org/2000/svg">
<g id="Group 250">
<path id="Vector" d="M12 0C5.3726 0 0 5.37256 0 12C0 18.6274 5.3726 24 12 24C18.6275 24 24 18.6274 24 12C24 5.37259 18.6275 0 12 0ZM18.5981 9.12366L10.8733 17.0291C10.5179 17.3928 9.94141 17.3928 9.58609 17.0291L5.40193 12.7469C5.04633 12.3831 5.04633 11.7933 5.40193 11.4295C5.75727 11.0656 6.3338 11.0656 6.68912 11.4295L10.2297 15.0528L17.3107 7.80615C17.6662 7.44232 18.2428 7.44232 18.5981 7.80615C18.9537 8.16996 18.9537 8.75983 18.5981 9.12366H18.5981Z" fill="#50BC93"/>
</g>
</svg>
