<svg width="24" height="24" viewBox="0 0 24 24" fill="none" xmlns="http://www.w3.org/2000/svg">
<g id="Frame">
<path id="Vector" d="M17.7281 10.1316V10.1199H12.9258V10.1059H8.74919V7.79961C8.74919 6.01133 10.1976 4.56289 11.9859 4.56289C13.6148 4.56289 14.9625 5.76523 15.1898 7.33086H17.7234C17.6226 4.49492 15.2929 2.22852 12.4312 2.22852H11.5429C10.139 2.22852 8.79138 2.78633 7.79763 3.78008C6.80388 4.77383 6.24607 6.11914 6.24607 7.52539V10.059L6.24841 10.1246V10.134C4.88435 10.3238 3.86951 11.491 3.86951 12.8691V18.923C3.86951 20.4488 5.10466 21.684 6.63044 21.684H17.3437C18.8695 21.684 20.1047 20.4488 20.1047 18.923V12.8645C20.1047 11.4887 19.0922 10.3215 17.7281 10.1316ZM12.6258 16.3637V18.1684C12.6258 18.5199 12.3398 18.8059 11.9883 18.8059C11.6367 18.8059 11.3508 18.5199 11.3508 18.1684V16.3637C10.5656 16.0566 10.1086 15.234 10.2656 14.4066C10.4226 13.577 11.1445 12.977 11.9883 12.977C12.832 12.977 13.5539 13.577 13.7109 14.4066C13.8656 15.234 13.4109 16.0566 12.6258 16.3637Z" fill="#409EFF"/>
</g>
</svg>
